<svg xmlns="http://www.w3.org/2000/svg" viewBox="0 0 68.5 68.79"><defs><style>.cls-1{fill:#feffff;}</style></defs><title>icone-eadbox</title><g id="Layer_2" data-name="Layer 2"><g id="Camada_1" data-name="Camada 1"><path class="cls-1" d="M67.7,25.76a27,27,0,0,0-1.55-5A34.37,34.37,0,0,0,43.82,1.3l-.72-.19L42.17.88C41.81.8,41.45.72,41.09.66A33.51,33.51,0,0,0,34.4,0,34.4,34.4,0,1,0,58.72,58.72L48.54,48.53a20,20,0,0,1-32.75-6.8h.59l0-.08H61a6.48,6.48,0,0,0,1,.07c5.05.12,6.51-4.12,6.5-9a34.28,34.28,0,0,0-.79-6.87A.06.06,0,0,1,67.7,25.76Zm-51.91.92a20.13,20.13,0,0,1,37.21,0Z"/></g></g></svg>